# xmcd CD database file
#
# Track frame offsets:
#	150
#	20335
#	33309
#	56336
#	79935
#	100224
#	115508
#	135676
#	151935
#
# Disc length: 2394 seconds
#
# Revision: 2
# Processed by: cddbd v1.5.2PL0 Copyright (c) Steve Scherf et al.
# Submitted via: CD2WAV32(JP) R3.22
#
DISCID=63095809
DTITLE=Dirty Dozen Brass Band - What's Going On
DYEAR=2006
DGENRE=Blues
TTITLE0=What's Going On
TTITLE1=What's Happening Brother
TTITLE2=Flyin' High (In the Friendly Sky)
TTITLE3=Save the Children
TTITLE4=God Is Love
TTITLE5=Mercy Mercy Me
TTITLE6=Right On
TTITLE7=Wholy Holy
TTITLE8=Inner City Blues
EXTD=
EXTT0=
EXTT1=
EXTT2=
EXTT3=
EXTT4=
EXTT5=
EXTT6=
EXTT7=
EXTT8=
PLAYORDER=
